# xmcd
#
# Track frame offsets: 
#        150
#        18608
#        33163
#        51550
#        69871
#        86367
#        101927
#        119394
#        136589
#        151374
#        165455
#        180930
#        195843
#        216021
#        233348
#        250116
#        269381
#        282650
#        297493
#        314563
#
# Disc length: 4403 seconds
#
# Revision: 0
# Processed by: cddbd v1.5.2PL0 Copyright (c) Steve Scherf et al.
# Submitted via: ExactAudioCopy v0.99pb3
#
DISCID=14113114
DTITLE=Various Artist - CD Pool - Radio (2009-08)
DYEAR=2009
DGENRE=Pop
TTITLE0=Black Eyed Peas - I Gotta Feeling
TTITLE1=Sugababes - Get Sexy
TTITLE2=Ketarine - Ayo Technology
TTITLE3=Mariah Carey - Obsessed
TTITLE4=Basement Jaxx feat. Sam Sparro - Feelings Gone
TTITLE5=Bananarama - Love Comes
TTITLE6=Sean Kingston - Fire Burning
TTITLE7=U2 - I'll Go Crazy If I Don't Go Crazy Tonight
TTITLE8=Basshunter - Every Morning
TTITLE9=Sliimy - Wake Up
TTITLE10=B.W.O. feat. Velvet - Right Here, Right Now
TTITLE11=Amerie - Why R U
TTITLE12=New Devices - Everything Good
TTITLE13=Taylor Swift - You Belong With Me
TTITLE14=Noisettes - Every Now And Then
TTITLE15=Dream - Walking On The Moon
TTITLE16=Scarzy - Johnny No Rhymes (Everybody's Gotta Learn)
TTITLE17=Remi Nicole - Standing Tears Apart
TTITLE18=Jeremih - Birthday Sex
TTITLE19=Livvi Franc - Now I'm That Bitch
EXTD=
EXTT0=
EXTT1=
EXTT2=
EXTT3=
EXTT4=
EXTT5=
EXTT6=
EXTT7=
EXTT8=
EXTT9=
EXTT10=
EXTT11=
EXTT12=
EXTT13=
EXTT14=
EXTT15=
EXTT16=
EXTT17=
EXTT18=
EXTT19=
PLAYORDER=
